<svg width="10" height="10" viewBox="0 0 10 10" fill="none" xmlns="http://www.w3.org/2000/svg">
<path d="M3.57514 9.39586C3.48347 9.39586 3.38764 9.3792 3.30014 9.34169C3.10431 9.25836 2.9543 9.09586 2.88764 8.8917L2.7043 8.3417C2.62097 8.0917 2.69597 7.77919 2.87931 7.59169L3.82514 6.6417C3.83764 6.62919 3.85431 6.58336 3.85431 6.56253V5.53336L1.95431 6.3542C1.70014 6.46253 1.44181 6.45003 1.24597 6.32086C1.05014 6.1917 0.933472 5.95836 0.933472 5.68753V5.15003C0.933472 4.74169 1.22514 4.30419 1.59597 4.15836L3.85014 3.18336V2.00003C3.85014 1.49586 4.2043 0.916695 4.6543 0.683362C4.87097 0.575028 5.12097 0.575028 5.33347 0.683362C5.78764 0.916695 6.1418 1.4917 6.1418 1.99586V3.1792L8.40847 4.1542C8.7793 4.31253 9.06264 4.73753 9.06264 5.15003V5.68753C9.06264 5.96253 8.95014 6.1917 8.75014 6.32086C8.55014 6.45003 8.29597 6.46253 8.0418 6.35836L6.1418 5.53753V6.5667C6.1418 6.58336 6.15847 6.62503 6.17097 6.63753L7.12097 7.59169C7.30431 7.77503 7.3793 8.09586 7.29597 8.3417L7.11264 8.8917C7.0418 9.09586 6.8918 9.25836 6.6918 9.33753C6.49597 9.41669 6.2793 9.40836 6.0918 9.3167C6.07097 9.3042 6.05014 9.2917 6.0293 9.27503L5.05847 8.45836C5.02514 8.42919 4.95847 8.43336 4.92931 8.45836L3.95847 9.27503C3.94181 9.2917 3.92097 9.3042 3.90014 9.31253C3.80014 9.37086 3.68764 9.39586 3.57514 9.39586ZM3.98347 4.85003C4.07931 4.85003 4.17097 4.87503 4.25014 4.92919C4.39597 5.02503 4.47931 5.18753 4.47931 5.3792V6.5667C4.47931 6.74586 4.3918 6.95836 4.2668 7.08336L3.32097 8.03336C3.3043 8.0542 3.28764 8.1167 3.29597 8.1417L3.47931 8.69586C3.49181 8.73753 3.52097 8.7542 3.53764 8.76253C3.55014 8.7667 3.57097 8.77503 3.59597 8.7667L4.5293 7.9792C4.79181 7.75419 5.20431 7.75419 5.4668 7.9792L6.39597 8.76253C6.42514 8.7667 6.44597 8.76253 6.45847 8.75836C6.47514 8.75003 6.50847 8.73336 6.52097 8.6917L6.70431 8.1417C6.71264 8.11253 6.69597 8.05003 6.67931 8.03336L5.73347 7.08336C5.60847 6.9667 5.5168 6.75003 5.5168 6.5667V5.3792C5.5168 5.1917 5.59597 5.0292 5.73764 4.93336C5.87931 4.83753 6.06264 4.82503 6.23764 4.90003L8.28764 5.78336C8.35014 5.80836 8.39181 5.80836 8.4043 5.80003C8.4168 5.7917 8.43347 5.7542 8.43347 5.68753V5.15003C8.43347 4.99169 8.30014 4.78753 8.15847 4.7292L5.83347 3.72503C5.65014 3.64586 5.52097 3.44586 5.52097 3.24586V1.99586C5.52097 1.72086 5.30431 1.3667 5.05431 1.2417C5.02097 1.22503 4.9793 1.22503 4.9418 1.2417C4.70014 1.3667 4.47931 1.7292 4.47931 2.00003V3.25003C4.47931 3.44586 4.35014 3.65003 4.16681 3.72919L1.84181 4.73336C1.69597 4.7917 1.56264 4.99586 1.56264 5.15003V5.68753C1.56264 5.7542 1.5793 5.7917 1.5918 5.80003C1.6043 5.80836 1.64597 5.80836 1.70847 5.78336L3.75431 4.90003C3.82931 4.8667 3.90847 4.85003 3.98347 4.85003Z" fill="#E17E01"/>
</svg>
