<svg width="10" height="10" viewBox="0 0 10 10" fill="none" xmlns="http://www.w3.org/2000/svg">
<path d="M7.04162 9.47915H2.9583C2.07496 9.47915 1.35413 8.75831 1.35413 7.87498V2.12498C1.35413 1.24165 2.07496 0.520813 2.9583 0.520813H7.04162C7.92496 0.520813 8.64579 1.24165 8.64579 2.12498V7.87498C8.64579 8.75831 7.92496 9.47915 7.04162 9.47915ZM2.9583 1.14581C2.4208 1.14581 1.97913 1.58332 1.97913 2.12498V7.87498C1.97913 8.41248 2.41663 8.85415 2.9583 8.85415H7.04162C7.57912 8.85415 8.02079 8.41664 8.02079 7.87498V2.12498C8.02079 1.58748 7.58329 1.14581 7.04162 1.14581H2.9583Z" fill="#E17E01"/>
<path d="M7.70829 5.72915H2.29163C1.77496 5.72915 1.35413 5.30831 1.35413 4.79165V3.95831C1.35413 3.44165 1.77496 3.02081 2.29163 3.02081H7.70829C8.22496 3.02081 8.64579 3.44165 8.64579 3.95831V4.79165C8.64579 5.30831 8.22496 5.72915 7.70829 5.72915ZM2.29163 3.64581C2.12079 3.64581 1.97913 3.78748 1.97913 3.95831V4.79165C1.97913 4.96248 2.12079 5.10415 2.29163 5.10415H7.70829C7.87913 5.10415 8.02079 4.96248 8.02079 4.79165V3.95831C8.02079 3.78748 7.87913 3.64581 7.70829 3.64581H2.29163Z" fill="#E17E01"/>
<path d="M3.33333 7.81245C3.19583 7.81245 3.0625 7.75829 2.96666 7.65829C2.94166 7.63746 2.92084 7.60829 2.9 7.57912C2.88334 7.55412 2.86667 7.52079 2.85417 7.49162C2.8375 7.45829 2.82917 7.42495 2.82084 7.39162C2.81667 7.35828 2.8125 7.32495 2.8125 7.29162C2.8125 7.25829 2.81667 7.22496 2.82084 7.19162C2.82917 7.15829 2.8375 7.12495 2.85417 7.09162C2.86667 7.06245 2.88334 7.02912 2.9 7.00412C2.92084 6.97495 2.94166 6.94578 2.96666 6.92495C3.15833 6.72912 3.50417 6.72912 3.7 6.92495C3.725 6.94578 3.74583 6.97495 3.76666 7.00412C3.78333 7.02912 3.8 7.06245 3.8125 7.09162C3.82916 7.12495 3.8375 7.15829 3.84583 7.19162C3.85 7.22496 3.85417 7.25829 3.85417 7.29162C3.85417 7.32495 3.85 7.35828 3.84583 7.39162C3.8375 7.42495 3.82916 7.45829 3.8125 7.49162C3.8 7.52079 3.78333 7.55412 3.76666 7.57912C3.74583 7.60829 3.725 7.63746 3.7 7.65829C3.60417 7.75829 3.47083 7.81245 3.33333 7.81245Z" fill="#E17E01"/>
<path d="M6.66671 7.81245C6.52921 7.81245 6.39587 7.75829 6.30004 7.65829C6.20004 7.56246 6.14587 7.42912 6.14587 7.29162C6.14587 7.15412 6.20004 7.02078 6.30004 6.92495C6.49171 6.72912 6.84171 6.72912 7.03338 6.92495C7.13338 7.02078 7.18754 7.15412 7.18754 7.29162C7.18754 7.42912 7.13338 7.56246 7.03338 7.65829C6.93754 7.75829 6.80421 7.81245 6.66671 7.81245Z" fill="#E17E01"/>
<path d="M6.04171 2.39581H3.95837C3.78754 2.39581 3.64587 2.25415 3.64587 2.08331C3.64587 1.91248 3.78754 1.77081 3.95837 1.77081H6.04171C6.21254 1.77081 6.35421 1.91248 6.35421 2.08331C6.35421 2.25415 6.21254 2.39581 6.04171 2.39581Z" fill="#E17E01"/>
</svg>
