<svg width="10" height="10" viewBox="0 0 10 10" fill="none" xmlns="http://www.w3.org/2000/svg">
<path d="M8.33319 4.89587H1.66653C1.57069 4.89587 1.48319 4.8542 1.42486 4.7792C1.36653 4.70837 1.34153 4.60837 1.36236 4.5167L1.83319 2.2667C1.98736 1.53753 2.29986 0.866699 3.53736 0.866699H6.46653C7.70403 0.866699 8.01653 1.5417 8.17069 2.2667L8.64153 4.52087C8.66236 4.61253 8.63736 4.70837 8.57903 4.78337C8.51653 4.8542 8.42903 4.89587 8.33319 4.89587ZM2.04986 4.27087H7.94569L7.55403 2.39587C7.43736 1.85003 7.29986 1.4917 6.46236 1.4917H3.53736C2.69986 1.4917 2.56236 1.85003 2.44569 2.39587L2.04986 4.27087Z" fill="#E17E01"/>
<path d="M8.3165 9.47921H7.53317C6.85817 9.47921 6.729 9.09171 6.64567 8.83754L6.56233 8.58754C6.454 8.27087 6.4415 8.22921 6.0665 8.22921H3.93317C3.55817 8.22921 3.53317 8.30004 3.43733 8.58754L3.354 8.83754C3.2665 9.09587 3.1415 9.47921 2.4665 9.47921H1.68317C1.354 9.47921 1.03733 9.34171 0.816499 9.10004C0.599832 8.86254 0.495666 8.54587 0.524832 8.22921L0.758166 5.69171C0.820666 5.00421 1.004 4.27087 2.3415 4.27087H7.65816C8.99567 4.27087 9.17483 5.00421 9.2415 5.69171L9.47483 8.22921C9.504 8.54587 9.39983 8.86254 9.18317 9.10004C8.96233 9.34171 8.64567 9.47921 8.3165 9.47921ZM3.93317 7.60421H6.0665C6.82483 7.60421 7.004 7.94171 7.154 8.38337L7.2415 8.64171C7.31233 8.85421 7.31233 8.85837 7.53733 8.85837H8.32067C8.47483 8.85837 8.62067 8.79587 8.72483 8.68337C8.82483 8.57504 8.87067 8.43754 8.85817 8.29171L8.62483 5.75421C8.57067 5.19171 8.504 4.90004 7.6665 4.90004H2.3415C1.49983 4.90004 1.43317 5.19171 1.38317 5.75421L1.14983 8.29171C1.13733 8.43754 1.18317 8.57504 1.28317 8.68337C1.38317 8.79587 1.53317 8.85837 1.68733 8.85837H2.47067C2.69567 8.85837 2.69567 8.85421 2.7665 8.64587L2.84983 8.39171C2.954 8.05837 3.10817 7.60421 3.93317 7.60421Z" fill="#E17E01"/>
<path d="M1.66654 3.64587H1.24988C1.07904 3.64587 0.937378 3.50421 0.937378 3.33337C0.937378 3.16254 1.07904 3.02087 1.24988 3.02087H1.66654C1.83738 3.02087 1.97904 3.16254 1.97904 3.33337C1.97904 3.50421 1.83738 3.64587 1.66654 3.64587Z" fill="#E17E01"/>
<path d="M8.7498 3.64587H8.33313C8.1623 3.64587 8.02063 3.50421 8.02063 3.33337C8.02063 3.16254 8.1623 3.02087 8.33313 3.02087H8.7498C8.92063 3.02087 9.0623 3.16254 9.0623 3.33337C9.0623 3.50421 8.92063 3.64587 8.7498 3.64587Z" fill="#E17E01"/>
<path d="M4.99988 2.39589C4.82904 2.39589 4.68738 2.25423 4.68738 2.08339V1.25006C4.68738 1.07923 4.82904 0.937561 4.99988 0.937561C5.17071 0.937561 5.31238 1.07923 5.31238 1.25006V2.08339C5.31238 2.25423 5.17071 2.39589 4.99988 2.39589Z" fill="#E17E01"/>
<path d="M5.62488 2.39587H4.37488C4.20404 2.39587 4.06238 2.25421 4.06238 2.08337C4.06238 1.91254 4.20404 1.77087 4.37488 1.77087H5.62488C5.79571 1.77087 5.93738 1.91254 5.93738 2.08337C5.93738 2.25421 5.79571 2.39587 5.62488 2.39587Z" fill="#E17E01"/>
<path d="M3.74988 6.56256H2.49988C2.32904 6.56256 2.18738 6.42089 2.18738 6.25006C2.18738 6.07923 2.32904 5.93756 2.49988 5.93756H3.74988C3.92071 5.93756 4.06238 6.07923 4.06238 6.25006C4.06238 6.42089 3.92071 6.56256 3.74988 6.56256Z" fill="#E17E01"/>
<path d="M7.49988 6.56256H6.24988C6.07904 6.56256 5.93738 6.42089 5.93738 6.25006C5.93738 6.07923 6.07904 5.93756 6.24988 5.93756H7.49988C7.67071 5.93756 7.81238 6.07923 7.81238 6.25006C7.81238 6.42089 7.67071 6.56256 7.49988 6.56256Z" fill="#E17E01"/>
</svg>
