<svg width="26" height="26" viewBox="0 0 26 26" fill="none" xmlns="http://www.w3.org/2000/svg">
<path d="M7.58342 11.6458H5.41675C2.79508 11.6458 1.35425 10.205 1.35425 7.58329V5.41663C1.35425 2.79496 2.79508 1.35413 5.41675 1.35413H7.58342C10.2051 1.35413 11.6459 2.79496 11.6459 5.41663V7.58329C11.6459 10.205 10.2051 11.6458 7.58342 11.6458ZM5.41675 2.97913C3.70508 2.97913 2.97925 3.70496 2.97925 5.41663V7.58329C2.97925 9.29496 3.70508 10.0208 5.41675 10.0208H7.58342C9.29508 10.0208 10.0209 9.29496 10.0209 7.58329V5.41663C10.0209 3.70496 9.29508 2.97913 7.58342 2.97913H5.41675Z" fill="white"/>
<path d="M20.5834 11.6458H18.4167C15.7951 11.6458 14.3542 10.205 14.3542 7.58329V5.41663C14.3542 2.79496 15.7951 1.35413 18.4167 1.35413H20.5834C23.2051 1.35413 24.6459 2.79496 24.6459 5.41663V7.58329C24.6459 10.205 23.2051 11.6458 20.5834 11.6458ZM18.4167 2.97913C16.7051 2.97913 15.9792 3.70496 15.9792 5.41663V7.58329C15.9792 9.29496 16.7051 10.0208 18.4167 10.0208H20.5834C22.2951 10.0208 23.0209 9.29496 23.0209 7.58329V5.41663C23.0209 3.70496 22.2951 2.97913 20.5834 2.97913H18.4167Z" fill="white"/>
<path d="M20.5834 24.6458H18.4167C15.7951 24.6458 14.3542 23.205 14.3542 20.5833V18.4166C14.3542 15.795 15.7951 14.3541 18.4167 14.3541H20.5834C23.2051 14.3541 24.6459 15.795 24.6459 18.4166V20.5833C24.6459 23.205 23.2051 24.6458 20.5834 24.6458ZM18.4167 15.9791C16.7051 15.9791 15.9792 16.705 15.9792 18.4166V20.5833C15.9792 22.295 16.7051 23.0208 18.4167 23.0208H20.5834C22.2951 23.0208 23.0209 22.295 23.0209 20.5833V18.4166C23.0209 16.705 22.2951 15.9791 20.5834 15.9791H18.4167Z" fill="white"/>
<path d="M7.58342 24.6458H5.41675C2.79508 24.6458 1.35425 23.205 1.35425 20.5833V18.4166C1.35425 15.795 2.79508 14.3541 5.41675 14.3541H7.58342C10.2051 14.3541 11.6459 15.795 11.6459 18.4166V20.5833C11.6459 23.205 10.2051 24.6458 7.58342 24.6458ZM5.41675 15.9791C3.70508 15.9791 2.97925 16.705 2.97925 18.4166V20.5833C2.97925 22.295 3.70508 23.0208 5.41675 23.0208H7.58342C9.29508 23.0208 10.0209 22.295 10.0209 20.5833V18.4166C10.0209 16.705 9.29508 15.9791 7.58342 15.9791H5.41675Z" fill="white"/>
</svg>
