<svg width="10" height="10" viewBox="0 0 10 10" fill="none" xmlns="http://www.w3.org/2000/svg">
<path d="M5.00004 9.47915C2.52921 9.47915 0.520874 7.47081 0.520874 4.99998C0.520874 2.52915 2.52921 0.520813 5.00004 0.520813C7.47087 0.520813 9.47921 2.52915 9.47921 4.99998C9.47921 7.47081 7.47087 9.47915 5.00004 9.47915ZM5.00004 1.14581C2.87504 1.14581 1.14587 2.87498 1.14587 4.99998C1.14587 7.12498 2.87504 8.85415 5.00004 8.85415C7.12504 8.85415 8.85421 7.12498 8.85421 4.99998C8.85421 2.87498 7.12504 1.14581 5.00004 1.14581Z" fill="#E17E01"/>
<path d="M6.54581 6.63748C6.49164 6.63748 6.43748 6.62498 6.38748 6.59165L5.09581 5.82082C4.77498 5.62915 4.53748 5.20832 4.53748 4.83748V3.12915C4.53748 2.95832 4.67914 2.81665 4.84998 2.81665C5.02081 2.81665 5.16248 2.95832 5.16248 3.12915V4.83748C5.16248 4.98748 5.28748 5.20832 5.41664 5.28332L6.70831 6.05415C6.85831 6.14165 6.90414 6.33332 6.81664 6.48332C6.75414 6.58332 6.64998 6.63748 6.54581 6.63748Z" fill="#E17E01"/>
</svg>
