<svg width="14" height="14" viewBox="0 0 14 14" fill="none" xmlns="http://www.w3.org/2000/svg">
<path d="M7 12.6004C6.82009 12.6004 6.64598 12.5772 6.50089 12.525C4.28393 11.7647 0.76116 9.06605 0.76116 5.079C0.76116 3.04775 2.40357 1.39954 4.42321 1.39954C5.40402 1.39954 6.32098 1.78257 7 2.46739C7.67902 1.78257 8.59598 1.39954 9.57679 1.39954C11.5964 1.39954 13.2388 3.05355 13.2388 5.079C13.2388 9.07186 9.71607 11.7647 7.49911 12.525C7.35402 12.5772 7.17991 12.6004 7 12.6004ZM4.42321 2.27007C2.88527 2.27007 1.6317 3.52945 1.6317 5.079C1.6317 9.04284 5.44464 11.2482 6.78527 11.7067C6.88973 11.7415 7.11607 11.7415 7.22053 11.7067C8.55536 11.2482 12.3741 9.04864 12.3741 5.079C12.3741 3.52945 11.1205 2.27007 9.58259 2.27007C8.70045 2.27007 7.88214 2.68213 7.35402 3.39596C7.19152 3.6165 6.82009 3.6165 6.65759 3.39596C6.11786 2.67632 5.30536 2.27007 4.42321 2.27007Z" fill="white"/>
</svg>
