<svg width="26" height="26" viewBox="0 0 26 26" fill="none" xmlns="http://www.w3.org/2000/svg">
<path d="M19.0665 24.4401H6.93317C4.9615 24.4401 3.16317 22.9234 2.83817 20.9734L1.39733 12.3501C1.16983 11.0068 1.81984 9.28431 2.89234 8.42847L10.3998 2.41592C11.8515 1.24592 14.1373 1.25676 15.5998 2.42676L23.1073 8.42847C24.169 9.28431 24.819 11.0068 24.6023 12.3501L23.1615 20.9734C22.8365 22.8909 21.0057 24.4401 19.0665 24.4401ZM12.989 3.18511C12.4148 3.18511 11.8407 3.35841 11.4182 3.69425L3.91067 9.7068C3.29317 10.2051 2.87068 11.3101 3.00068 12.0901L4.44151 20.7134C4.63651 21.8509 5.774 22.8151 6.93317 22.8151H19.0665C20.2257 22.8151 21.3632 21.8509 21.5582 20.7026L22.999 12.0793C23.129 11.2993 22.6957 10.1835 22.089 9.69596L14.5815 3.69425C14.1482 3.35841 13.574 3.18511 12.989 3.18511Z" fill="#E17E01"/>
<path d="M13 17.6042C11.0608 17.6042 9.47917 16.0225 9.47917 14.0833C9.47917 12.1442 11.0608 10.5625 13 10.5625C14.9392 10.5625 16.5208 12.1442 16.5208 14.0833C16.5208 16.0225 14.9392 17.6042 13 17.6042ZM13 12.1875C11.96 12.1875 11.1042 13.0433 11.1042 14.0833C11.1042 15.1233 11.96 15.9792 13 15.9792C14.04 15.9792 14.8958 15.1233 14.8958 14.0833C14.8958 13.0433 14.04 12.1875 13 12.1875Z" fill="#E17E01"/>
</svg>
