<svg width="26" height="26" viewBox="0 0 26 26" fill="white"  xmlns="http://www.w3.org/2000/svg">
<path d="M22.0783 22.8909C21.8616 22.8909 21.6558 22.8042 21.5041 22.6525L14.5924 15.7409C14.2783 15.4267 14.2783 14.9067 14.5924 14.5925L22.9666 6.21839C23.1724 6.01255 23.4866 5.93672 23.7683 6.01255C24.0499 6.09922 24.2666 6.32672 24.3316 6.60839C24.5374 7.52922 24.6458 8.55838 24.6458 9.75005V16.25C24.6458 19.2509 24.0174 21.2767 22.6524 22.6525C22.5008 22.8042 22.2733 22.8367 22.0783 22.8909ZM16.3149 15.1667L22.0133 20.865C22.6958 19.8142 23.0208 18.3192 23.0208 16.25V9.75005C23.0208 9.30588 23.0099 8.89422 22.9774 8.50422L16.3149 15.1667Z" />
<path d="M6.79249 24.3533C6.72749 24.3533 6.67334 24.3425 6.60834 24.3316C3.0225 23.5083 1.35416 20.9408 1.35416 16.25V9.74996C1.35416 3.86746 3.8675 1.35413 9.75 1.35413H16.25C20.9408 1.35413 23.5083 3.02247 24.3317 6.6083C24.3967 6.87913 24.31 7.17163 24.115 7.36663L7.36665 24.115C7.21498 24.2666 7.00915 24.3533 6.79249 24.3533ZM9.75 2.97913C4.75583 2.97913 2.97916 4.75579 2.97916 9.74996V16.25C2.97916 20.0091 4.01917 21.8941 6.54334 22.6416L22.6308 6.55413C21.8942 4.02996 19.9983 2.98995 16.2392 2.98995H9.75V2.97913Z" />
<path d="M16.2499 24.6459H9.74988C8.55821 24.6459 7.53989 24.5484 6.60822 24.3317C6.31572 24.2667 6.0882 24.0501 6.01237 23.7684C5.9257 23.4867 6.01237 23.1834 6.2182 22.9667L14.5924 14.5926C14.9065 14.2784 15.4265 14.2784 15.7407 14.5926L22.6524 21.5042C22.804 21.6559 22.8907 21.8617 22.8907 22.0784C22.8907 22.2951 22.804 22.5009 22.6524 22.6526C21.2765 24.0176 19.2507 24.6459 16.2499 24.6459ZM8.50405 22.9776C8.89405 23.0101 9.30571 23.0209 9.74988 23.0209H16.2499C18.3299 23.0209 19.8141 22.6959 20.8649 22.0134L15.1665 16.3151L8.50405 22.9776Z" />
<path d="M9.87994 14.4191C9.19744 14.4191 8.51493 14.17 7.97326 13.6608C6.25076 12.025 5.55745 10.2266 5.96912 8.47164C6.38079 6.67331 7.95161 5.45996 9.87994 5.45996C11.8083 5.45996 13.3791 6.67331 13.7908 8.47164C14.1916 10.2375 13.4983 12.025 11.7758 13.6608C11.2449 14.1591 10.5624 14.4191 9.87994 14.4191ZM7.55078 8.82913C7.20411 10.3025 8.20077 11.6241 9.09994 12.48C9.5441 12.9025 10.2266 12.9025 10.6599 12.48C11.5483 11.635 12.5449 10.3133 12.2091 8.82913C11.9166 7.53996 10.7683 7.07413 9.87994 7.07413C8.99161 7.07413 7.85411 7.53996 7.55078 8.82913Z" />
<path d="M9.9124 10.2808C9.31656 10.2808 8.82906 9.7933 8.82906 9.19747C8.82906 8.60164 9.30573 8.11414 9.9124 8.11414H9.92324C10.5191 8.11414 11.0066 8.60164 11.0066 9.19747C11.0066 9.7933 10.5082 10.2808 9.9124 10.2808Z" />
</svg>
