<svg width="26" height="26" viewBox="0 0 26 26" fill="none" xmlns="http://www.w3.org/2000/svg">
<path d="M13.0217 22.2408C10.4975 22.2408 7.97333 21.84 5.57916 21.0383C4.66916 20.7242 3.97583 20.085 3.6725 19.2508C3.35833 18.4167 3.46666 17.4958 3.965 16.6725L5.21083 14.6033C5.47083 14.17 5.70916 13.3033 5.70916 12.7942V9.66333C5.70916 5.63333 8.99167 2.35083 13.0217 2.35083C17.0517 2.35083 20.3342 5.63333 20.3342 9.66333V12.7942C20.3342 13.2925 20.5725 14.17 20.8325 14.6142L22.0675 16.6725C22.5333 17.4525 22.62 18.395 22.3058 19.2508C21.9917 20.1067 21.3092 20.7567 20.4533 21.0383C18.07 21.84 15.5458 22.2408 13.0217 22.2408ZM13.0217 3.97583C9.89083 3.97583 7.33416 6.52166 7.33416 9.66333V12.7942C7.33416 13.585 7.00916 14.755 6.60833 15.4375L5.3625 17.5067C5.12416 17.9075 5.05916 18.33 5.2 18.6875C5.33 19.0558 5.655 19.3375 6.09916 19.4892C10.6275 21.0058 15.4267 21.0058 19.955 19.4892C20.345 19.3592 20.6483 19.0667 20.7892 18.6767C20.93 18.2867 20.8975 17.8642 20.6808 17.5067L19.435 15.4375C19.0233 14.7333 18.7092 13.5742 18.7092 12.7833V9.66333C18.7092 6.52166 16.1633 3.97583 13.0217 3.97583Z" fill="white"/>
<path d="M15.0367 4.26832C14.9608 4.26832 14.885 4.25749 14.8092 4.23582C14.495 4.14915 14.1917 4.08415 13.8992 4.04082C12.9783 3.92165 12.09 3.98665 11.2558 4.23582C10.9525 4.33332 10.6275 4.23582 10.4217 4.00832C10.2158 3.78082 10.1508 3.45582 10.27 3.16332C10.7142 2.02582 11.7975 1.27832 13.0325 1.27832C14.2675 1.27832 15.3508 2.01499 15.795 3.16332C15.9033 3.45582 15.8492 3.78082 15.6433 4.00832C15.4808 4.18165 15.2533 4.26832 15.0367 4.26832Z" fill="white"/>
<path d="M13.0217 24.7108C11.9492 24.7108 10.9092 24.2775 10.1508 23.5191C9.3925 22.7608 8.95917 21.7208 8.95917 20.6483H10.5842C10.5842 21.2875 10.8442 21.9158 11.2992 22.3708C11.7542 22.8258 12.3825 23.0858 13.0217 23.0858C14.365 23.0858 15.4592 21.9916 15.4592 20.6483H17.0842C17.0842 22.8908 15.2642 24.7108 13.0217 24.7108Z" fill="white"/>
<circle cx="17.5" cy="4.5" r="4.5" fill="#E17E01"/>
</svg>
