<svg width="12" height="13" viewBox="0 0 12 13" fill="none" xmlns="http://www.w3.org/2000/svg">
<path d="M8.7385 11.5683C8.48675 11.5683 8.16375 11.4875 7.76 11.25L6.33975 10.4093C6.1925 10.3238 5.9075 10.3238 5.765 10.4093L4.34 11.25C3.49925 11.7488 3.00525 11.5493 2.782 11.3878C2.5635 11.2263 2.2215 10.813 2.44475 9.863L2.782 8.40475C2.82 8.25275 2.744 7.9915 2.63 7.8775L1.452 6.6995C0.863 6.1105 0.9105 5.607 0.99125 5.36C1.072 5.113 1.3285 4.676 2.1455 4.53825L3.66075 4.2865C3.80325 4.26275 4.0075 4.11075 4.06925 3.9825L4.91 2.30575C5.29 1.541 5.78875 1.427 6.05 1.427C6.31125 1.427 6.81 1.541 7.19 2.30575L8.026 3.97775C8.0925 4.106 8.29675 4.258 8.43925 4.28175L9.9545 4.5335C10.7762 4.67125 11.0327 5.10825 11.1088 5.35525C11.1847 5.60225 11.2322 6.10575 10.648 6.69475L9.47 7.8775C9.356 7.9915 9.28475 8.248 9.318 8.40475L9.65525 9.863C9.87375 10.813 9.5365 11.2263 9.318 11.3878C9.19925 11.4733 9.00925 11.5683 8.7385 11.5683ZM6.05 9.63025C6.28275 9.63025 6.5155 9.68725 6.70075 9.7965L8.121 10.6373C8.53425 10.8843 8.7955 10.8843 8.89525 10.813C8.995 10.7418 9.06625 10.49 8.96175 10.0245L8.6245 8.56625C8.53425 8.172 8.6815 7.66375 8.9665 7.374L10.1445 6.196C10.3773 5.96325 10.4817 5.73525 10.4342 5.5785C10.382 5.42175 10.1635 5.2935 9.8405 5.24125L8.32525 4.9895C7.9595 4.92775 7.5605 4.63325 7.39425 4.30075L6.55825 2.62875C6.40625 2.32475 6.21625 2.14425 6.05 2.14425C5.88375 2.14425 5.69375 2.32475 5.5465 2.62875L4.70575 4.30075C4.5395 4.63325 4.1405 4.92775 3.77475 4.9895L2.26425 5.24125C1.94125 5.2935 1.72275 5.42175 1.6705 5.5785C1.61825 5.73525 1.7275 5.968 1.96025 6.196L3.13825 7.374C3.42325 7.659 3.5705 8.172 3.48025 8.56625L3.143 10.0245C3.03375 10.4948 3.10975 10.7418 3.2095 10.813C3.30925 10.8843 3.56575 10.8795 3.98375 10.6373L5.404 9.7965C5.5845 9.68725 5.81725 9.63025 6.05 9.63025Z" fill="white"/>
</svg>
