<svg width="26" height="26" viewBox="0 0 26 26" fill="none" xmlns="http://www.w3.org/2000/svg">
<path d="M13 13.8125C9.56583 13.8125 6.77083 11.0175 6.77083 7.58329C6.77083 4.14913 9.56583 1.35413 13 1.35413C16.4342 1.35413 19.2292 4.14913 19.2292 7.58329C19.2292 11.0175 16.4342 13.8125 13 13.8125ZM13 2.97913C10.465 2.97913 8.39583 5.04829 8.39583 7.58329C8.39583 10.1183 10.465 12.1875 13 12.1875C15.535 12.1875 17.6042 10.1183 17.6042 7.58329C17.6042 5.04829 15.535 2.97913 13 2.97913Z" fill="white"/>
<path d="M22.306 24.6458C21.8618 24.6458 21.4935 24.2775 21.4935 23.8333C21.4935 20.0958 17.6802 17.0625 13.0002 17.0625C8.32016 17.0625 4.50684 20.0958 4.50684 23.8333C4.50684 24.2775 4.1385 24.6458 3.69434 24.6458C3.25017 24.6458 2.88184 24.2775 2.88184 23.8333C2.88184 19.2075 7.421 15.4375 13.0002 15.4375C18.5793 15.4375 23.1185 19.2075 23.1185 23.8333C23.1185 24.2775 22.7502 24.6458 22.306 24.6458Z" fill="white"/>
</svg>
