<svg width="31" height="31" viewBox="0 0 31 31" fill="none" xmlns="http://www.w3.org/2000/svg">
<path d="M14.2083 26.8021C7.25916 26.8021 1.61458 21.1575 1.61458 14.2083C1.61458 7.25918 7.25916 1.61459 14.2083 1.61459C21.1575 1.61459 26.8021 7.25918 26.8021 14.2083C26.8021 21.1575 21.1575 26.8021 14.2083 26.8021ZM14.2083 3.55209C8.33124 3.55209 3.55208 8.33126 3.55208 14.2083C3.55208 20.0854 8.33124 24.8646 14.2083 24.8646C20.0854 24.8646 24.8646 20.0854 24.8646 14.2083C24.8646 8.33126 20.0854 3.55209 14.2083 3.55209Z" fill="#fff"/>
<path d="M26.04 29.4371C25.9367 29.4371 25.8333 29.4242 25.7429 29.4113C25.1358 29.3338 24.0379 28.9204 23.4179 27.0733C23.095 26.1046 23.2112 25.1358 23.7408 24.3996C24.2704 23.6633 25.1617 23.25 26.1821 23.25C27.4996 23.25 28.5329 23.7538 28.9979 24.645C29.4629 25.5363 29.3337 26.6729 28.5975 27.7708C27.6804 29.1529 26.6858 29.4371 26.04 29.4371ZM25.265 26.4663C25.4846 27.1379 25.7946 27.4738 26.0012 27.4996C26.2079 27.5254 26.5954 27.28 26.9958 26.6988C27.3704 26.1433 27.3962 25.7429 27.3058 25.5621C27.2154 25.3813 26.8537 25.1875 26.1821 25.1875C25.7817 25.1875 25.4846 25.3167 25.3167 25.5363C25.1617 25.7558 25.1358 26.0917 25.265 26.4663Z" fill="#fff"/>
</svg>
